<svg xmlns="http://www.w3.org/2000/svg" width="35" height="33.693" viewBox="0 0 35 33.693">
  <g id="Group_4055" data-name="Group 4055" transform="translate(0 0)">
    <path id="Path_9591" data-name="Path 9591" d="M33.236,14.035c-.316-1.665.62-3.809-.23-5.329-.82-1.467-3.166-1.886-4.48-3.1S26.66,2.147,25.108,1.427c-1.609-.746-3.771.267-5.5.046-1.749-.224-3.567-1.741-5.3-1.433-1.718.305-2.86,2.343-4.428,3.166C8.365,4,5.975,3.8,4.725,5.071s-.92,3.578-1.663,5.083C2.293,11.713.251,12.92.023,14.6c-.232,1.695,1.425,3.377,1.742,5.059.316,1.664-.621,3.808.229,5.328.82,1.466,3.168,1.886,4.482,3.1s1.864,3.461,3.417,4.182c1.609.746,3.77-.268,5.5-.046,1.749.224,3.566,1.741,5.3,1.433,1.718-.307,2.859-2.343,4.428-3.166,1.513-.794,3.9-.591,5.154-1.864s.92-3.578,1.662-5.082c.769-1.559,2.812-2.767,3.04-4.444C35.208,17.4,33.553,15.716,33.236,14.035Z" transform="translate(0 0.001)" fill="#ff9595"/>
    <text id="_" data-name="!" transform="translate(14 24)" fill="#fff" font-size="23" font-family="Hubot-Sans" font-weight="600"><tspan x="0" y="0">!</tspan></text>
  </g>
</svg>
