<svg width="200" height="200" viewBox="0 0 200 200" fill="none" xmlns="http://www.w3.org/2000/svg">
<path d="M50.0174 49.8564C26.3934 73.3537 23.7322 108.814 40.302 135.774C42.8001 139.839 48.4195 140.144 51.8062 136.775L58.0585 130.556C60.856 127.774 61.131 123.406 59.2292 119.955C49.6015 102.487 50.9949 81.0356 65.9973 66.1138C81.0098 51.1818 102.892 49.5106 120.573 58.9959C124.043 60.8575 128.416 60.5765 131.204 57.8035L137.405 51.6356C140.792 48.267 140.485 42.6778 136.399 40.1931C109.293 23.7123 73.6415 26.3591 50.0174 49.8564Z" fill="#C40D3B"/>
<path d="M142.885 69.3091C140.089 72.0908 139.815 76.457 141.701 79.9145C151.347 97.5916 149.509 119.467 134.574 134.322C119.652 149.164 97.9424 150.643 80.3233 141.004C76.849 139.104 72.4453 139.371 69.6415 142.16L63.3921 148.376C60.0127 151.737 60.3092 157.313 64.3797 159.804C91.4963 176.399 127.209 173.618 150.828 150.125C174.447 126.633 177.243 91.1123 160.558 64.1411C158.054 60.0925 152.448 59.7976 149.069 63.1589L142.885 69.3091Z" fill="#C40D3B"/>
</svg>
